<?xml version="1.0" encoding="UTF-8"?>
<svg xmlns="http://www.w3.org/2000/svg" xmlns:xlink="http://www.w3.org/1999/xlink" width="px" height="32px" viewBox="0 0 32 32" version="1.1">
<g id="surface1">
<path style=" stroke:none;fill-rule:nonzero;fill:rgb(0%,36.470588%,72.941176%);fill-opacity:1;" d="M 28 15 C 28 22.179688 22.179688 28 15 28 C 7.820312 28 2 22.179688 2 15 C 2 7.820312 7.820312 2 15 2 C 22.175781 2.007812 27.992188 7.824219 28 15 Z M 28 15 "/>
<path style=" stroke:none;fill-rule:nonzero;fill:rgb(100%,100%,100%);fill-opacity:1;" d="M 16 22 L 16 12 L 14 12 L 14 22 Z M 16.5 8.5 C 16.5 9.328125 15.828125 10 15 10 C 14.171875 10 13.5 9.328125 13.5 8.5 C 13.5 7.671875 14.171875 7 15 7 C 15.828125 7 16.5 7.671875 16.5 8.5 Z M 16.5 8.5 "/>
</g>
</svg>
