<?xml version="1.0" encoding="UTF-8"?>
<svg xmlns="http://www.w3.org/2000/svg" xmlns:xlink="http://www.w3.org/1999/xlink" width="32pt" height="32pt" viewBox="0 0 32 32" version="1.1">
<g id="surface1">
<path style=" stroke:none;fill-rule:nonzero;fill:rgb(96.470588%,96.470588%,96.470588%);fill-opacity:1;" d="M 32 16 C 32 24.835938 24.835938 32 16 32 C 7.164062 32 0 24.835938 0 16 C 0 7.164062 7.164062 0 16 0 C 24.835938 0 32 7.164062 32 16 Z M 32 16 "/>
<path style=" stroke:none;fill-rule:nonzero;fill:rgb(89.803922%,7.843137%,0%);fill-opacity:1;" d="M 16 2 C 8.265625 2 2 8.269531 2 16.003906 C 2 23.734375 8.269531 30.003906 16.003906 30.003906 C 23.734375 30 30.003906 23.734375 30.003906 16 C 30 8.265625 23.734375 2 16 2 Z M 24.828125 22 L 22 24.828125 L 16 18.828125 L 10 24.828125 L 7.171875 22 L 13.171875 16 L 7.171875 10 L 10 7.171875 L 16 13.171875 L 22 7.171875 L 24.828125 10 L 18.828125 16 Z M 24.828125 22 "/>
<path style=" stroke:none;fill-rule:nonzero;fill:rgb(100%,100%,100%);fill-opacity:1;" d="M 18.828125 16 L 24.828125 22 L 22 24.828125 L 16 18.828125 L 10 24.828125 L 7.171875 22 L 13.171875 16 L 7.171875 10 L 10 7.171875 L 16 13.171875 L 22 7.171875 L 24.828125 10 Z M 18.828125 16 "/>
</g>
</svg>
